# xmcd CD database file
#
# Track frame offsets:
#	150
#	13244
#	23761
#	37836
#	53662
#	68596
#	80683
#	93720
#	106590
#	119363
#	133528
#	146455
#	175119
#
# Disc length: 2342 seconds
#
# Revision: 0
# Processed by: cddbd v1.5.2PL0 Copyright (c) Steve Scherf et al.
# Submitted via: CDex 1.79
#
DISCID=a009240d
DTITLE=Dee Reilly - Nothin` Right And Nothin`s Left
DYEAR=1900
DGENRE=Country
TTITLE0=Nothin` Right And Nothin`s Left
TTITLE1=You Ain`t Woman Enough To Take My Man
TTITLE2=I`ll Leave This World Loving You
TTITLE3=Only Here For A Little While
TTITLE4=Somewhere Tonight
TTITLE5=Bing Bang Boom
TTITLE6=You Better Straighten Up And Love Right
TTITLE7=Mi Vida Loca
TTITLE8=Guitar Talk
TTITLE9=Fastest Healin` Wounded Heart In Town
TTITLE10=Nobody Loves You Like I Do
TTITLE11=Please Don`t Tell Me How The Story Ends
TTITLE12=Data
EXTD=
EXTT0=
EXTT1=
EXTT2=
EXTT3=
EXTT4=
EXTT5=
EXTT6=
EXTT7=
EXTT8=
EXTT9=
EXTT10=
EXTT11=
EXTT12=
PLAYORDER=
